<?xml version="1.0" encoding="UTF-8" standalone="no"?>
<!-- Generator: Adobe Illustrator 19.0.0, SVG Export Plug-In . SVG Version: 6.00 Build 0)  -->

<svg
   version="1.1"
   id="layer"
   x="0px"
   y="0px"
   viewBox="-153 -46 653 405"
   xml:space="preserve"
   width="653"
   height="405"
   xmlns="http://www.w3.org/2000/svg"
   xmlns:svg="http://www.w3.org/2000/svg"><defs
   id="defs1" />
	<!-- White rounded rectangle background -->
	
	<!-- Kafka logo content -->
<g
   id="g1"
   transform="translate(0.5,-125.5)"><rect
     x="-153"
     y="80"
     width="652"
     height="404"
     rx="20"
     ry="20"
     fill="#ffffff"
     stroke="#e0e0e0"
     stroke-width="1"
     id="rect1" /><path
     id="XMLID_2_"
     d="M 473.2,333.5 H 454.5 V 322 c -5,9.3 -15.4,14 -26.4,14 -25.1,0 -39.9,-19.9 -39.9,-42.4 0,-25.1 17.9,-42.3 39.9,-42.3 14.3,0 23,7.7 26.4,14.1 v -11.6 h 18.7 z M 407,293.9 c 0,9.9 7,24.3 23.8,24.3 10.4,0 17.3,-5.5 20.9,-12.8 1.9,-3.5 2.7,-7.3 3,-11.3 0.1,-3.8 -0.6,-7.7 -2.2,-11.2 -3.2,-7.5 -10.5,-14.1 -21.8,-14.1 -15.2,0 -23.7,12.5 -23.7,24.8 z m -89.9,-68 h 18.7 V 284 l 27,-30.4 h 22.5 l -32.6,35.2 32.6,44.6 h -21.4 l -28.1,-39.8 v 39.8 H 317.1 V 225.9 m -43.9,42.5 h -9.7 v -14.7 h 9.7 v -4.5 c 0,-23.7 17.7,-25.1 31.1,-25.3 v 14.7 c -4.7,0 -12.4,0 -12.4,11.2 v 3.9 h 12.4 v 14.7 h -12.4 v 65.1 H 273.2 Z M 252,333.5 H 233.3 V 322 c -5,9.3 -15.4,14 -26.4,14 -25.1,0 -39.9,-19.9 -39.9,-42.4 0,-25.1 17.9,-42.3 39.9,-42.3 14.3,0 23,7.7 26.4,14.1 V 253.8 H 252 Z m -66.3,-39.6 c 0,9.9 7,24.3 23.9,24.3 10.4,0 17.3,-5.5 20.9,-12.8 1.9,-3.5 2.7,-7.3 3,-11.3 0.1,-3.8 -0.6,-7.7 -2.2,-11.2 -3.3,-7.5 -10.6,-14.1 -21.8,-14.1 -15.1,0 -23.7,12.5 -23.7,24.8 v 0.3 z M 95.9,226 h 18.7 v 58.1 l 27,-30.4 h 22.5 l -32.6,35.2 32.6,44.5 h -21.4 l -28.1,-39.8 v 39.8 H 95.8 L 95.9,226 M 21.4,220.2 21.3,220 c -2.2,-3.8 -5.8,-6.6 -10.1,-7.8 -4.3,-1.2 -8.9,-0.6 -12.8,1.7 v 0 c -4,2.3 -6.7,6.1 -7.8,10.4 -1.2,4.4 -0.5,9 1.7,13 l 0.1,0.1 c 2.3,4 6,6.7 10.1,7.8 4.1,1.2 8.8,0.7 12.8,-1.7 l 0.2,-0.1 c 3.9,-2.4 6.6,-6.1 7.6,-10.3 1.1,-4.2 0.7,-8.8 -1.7,-12.9 m -94.2,13.1 c 9.6,1.6 18.5,6.3 25.3,13.3 h 0.1 l 3.1,3.5 16.8,-9.9 c -2.2,-6.8 -2.4,-14.1 -0.5,-21 2.4,-9.1 8.2,-17.2 16.9,-22.4 l 0.3,-0.2 c 8.2,-4.8 18,-6.1 27.2,-3.6 9.3,2.6 17.2,8.7 22,17.1 v 0 c 5,8.8 6,18.9 3.6,27.9 -2.4,9.1 -8.2,17.3 -16.9,22.4 l -2.3,1.4 h -0.2 c -7.8,3.8 -16.6,4.6 -25,2.3 -6.8,-1.9 -12.9,-5.7 -17.6,-11 l -16.7,9.8 c 2,5.3 3,11 3,16.7 0,5.9 -1.1,11.5 -3,16.7 l 16.7,9.8 c 4.8,-5.5 10.9,-9.1 17.6,-11 8.9,-2.5 18.8,-1.4 27.5,3.7 l 0.5,0.3 v 0 c 8.1,5 14,12.9 16.3,22.1 2.5,9.4 1.2,19.4 -3.6,27.9 l -0.3,0.6 v 0 c -4.8,8.2 -12.6,14.1 -21.6,16.7 -8.9,2.4 -18.9,1.4 -27.5,-3.7 v 0.3 c -8.4,-4.9 -14.4,-13 -16.9,-22.4 -1.8,-6.9 -1.6,-14.2 0.5,-21 l -16.8,-9.9 -3.1,3.4 v 0.1 c -6.7,6.9 -15.5,11.6 -25.3,13.2 v 19.7 c 6.9,1.5 13.2,5 18.1,10 v 0.1 c 6.6,6.6 10.6,15.9 10.6,26 0,9.7 -3.8,19.1 -10.6,26 v 0.1 c -6.6,6.6 -15.6,10.7 -25.6,10.7 -9.9,0 -19,-4.1 -25.6,-10.8 v 0 -0.1 c -6.8,-6.9 -10.6,-16.3 -10.6,-26 0,-10.1 4.1,-19.4 10.6,-26 v -0.1 0 c 4.9,-5.1 11.2,-8.6 18.1,-10 v -19.7 c -9.8,-1.6 -18.5,-6.4 -25.2,-13.2 L -113,313 c -8.8,-8.9 -13.7,-20.9 -13.7,-33.4 0,-13 5.2,-24.8 13.6,-33.3 h 0.1 c 6.8,-7 15.6,-11.6 25.2,-13.3 v -19.6 c -6.8,-1.5 -13.1,-5 -18.1,-10 v 0 -0.1 c -6.8,-6.9 -10.6,-16.3 -10.6,-26 0,-9.7 3.8,-19.1 10.6,-26 h 0.1 c 6.7,-6.9 15.9,-10.8 25.5,-10.8 10,0 19,4.1 25.6,10.8 v 0 0 c 6.6,6.7 10.6,15.9 10.6,26 0,9.7 -3.8,19.1 -10.6,26 v 0.1 c -4.9,4.9 -11.1,8.5 -18.1,10 z m 9.7,29.1 c -4.4,-4.5 -10.5,-7.3 -17.2,-7.3 -6.5,0 -12.7,2.6 -17.2,7.3 -4.4,4.5 -7.1,10.6 -7.1,17.5 0,6.6 2.5,12.9 7.1,17.6 4.4,4.4 10.5,7.2 17.2,7.2 6.7,0 12.8,-2.8 17.2,-7.2 4.6,-4.7 7.1,-11 7.1,-17.6 0,-6.5 -2.6,-12.8 -7.1,-17.5 z m 74.3,85.2 c 4.3,-1.2 8,-4 10.2,-7.9 l 0.3,-0.6 c 2,-3.8 2.5,-8.2 1.3,-12.4 -1.1,-4.3 -3.8,-8 -7.8,-10.4 L 15,316.1 c -3.8,-2.1 -8.3,-2.7 -12.5,-1.5 -4.2,1.1 -7.9,3.9 -10.2,8 -2.2,3.9 -2.8,8.6 -1.7,13 1.2,4.4 4,8.1 7.8,10.4 v 0 c 4.1,2.3 8.6,2.7 12.8,1.6 z m -91.5,51.8 c 4.7,0 8.9,-1.9 11.9,-5 v -0.1 c 3,-3 4.8,-7.3 4.8,-12 0,-4.8 -1.8,-9 -4.8,-12.1 v 0 c -3,-3.1 -7.2,-5 -11.9,-5 -4.5,0 -8.8,1.8 -11.8,5 h -0.1 c -3.2,3.3 -4.9,7.6 -4.9,12.1 0,4.5 1.7,8.8 4.9,12 l 0.1,0.1 c 3.1,3.2 7.3,5 11.8,5 z m 11.9,-234 c -3,-3.1 -7.2,-5 -11.9,-5 -4.5,0 -8.7,1.8 -11.8,5 h -0.1 c -3.2,3.2 -5,7.6 -4.9,12.1 0,4.5 1.7,8.9 4.9,12.1 l 0.1,0.1 c 3.1,3.2 7.4,5 11.8,4.9 4.7,0 8.9,-1.9 11.9,-4.9 v -0.1 c 3,-3 4.8,-7.3 4.8,-12.1 0,-4.5 -1.7,-8.9 -4.8,-12.1 z" /></g>
</svg>
