<?xml version="1.0" encoding="UTF-8" standalone="no"?>
<!-- Generator: Adobe Illustrator 19.0.0, SVG Export Plug-In . SVG Version: 6.00 Build 0)  -->

<svg
   version="1.1"
   id="layer"
   x="0px"
   y="0px"
   viewBox="-153 -46 653 405"
   xml:space="preserve"
   width="653"
   height="405"
   xmlns="http://www.w3.org/2000/svg"
   xmlns:svg="http://www.w3.org/2000/svg"><defs
   id="defs1" />
	<!-- White rounded rectangle background -->
	
	<!-- Kafka logo content -->

<g
   id="g2"
   transform="translate(0.5,-125.5)"><rect
     x="-153"
     y="80"
     width="652"
     height="404"
     rx="20"
     ry="20"
     fill="#ffffff"
     stroke="#e0e0e0"
     stroke-width="1"
     id="rect1" /><g
     transform="matrix(0.41192978,0,0,0.41192978,14.849519,121.79837)"
     id="g1"><path
       class="st0"
       d="m 698.3,40 c -10.8,25.8 -24.5,50.3 -41,72.8 C 585.1,40.6 487.1,0 385,0 173.8,0 0,174 0,385.5 0,491 43.2,592 119.6,664.8 l 14.2,12.6 c 69.4,58.5 157.3,90.7 248,90.7 200.8,0 369.6,-157.4 383.9,-358 C 776.2,311.9 747.4,187.7 698.3,40 Z m -524,627 c -6.2,7.7 -15.7,12.2 -25.6,12.2 -18.1,0 -32.9,-14.9 -32.9,-33 0,-18.1 14.9,-33 32.9,-33 7.5,0 14.9,2.6 20.7,7.4 14.1,11.4 16.3,32.3 4.9,46.4 z M 696.7,551.6 c -95,126.7 -297.9,84 -428,90.1 0,0 -23.1,1.4 -46.3,5.2 0,0 8.7,-3.7 20,-8 91.3,-31.8 134.5,-38 190,-66.5 C 536.9,519.2 640.2,402.8 661.7,281.7 621.9,398.2 501.3,498.3 391.4,539 316.1,566.8 180.1,593.8 180.1,593.8 l -5.5,-2.9 C 82,545.8 79.2,345.1 247.5,280.3 c 73.7,-28.4 144.2,-12.8 223.8,-31.8 85,-20.2 183.3,-84 223.3,-167.2 44.8,133.1 98.7,341.5 2.1,470.3 z"
       id="path1"
       style="fill:#77bc1f" /></g></g></svg>
